<svg width="80" height="80" viewBox="0 0 80 80" fill="none" xmlns="http://www.w3.org/2000/svg">
<path d="M56.6215 30.3166C56.6215 25.7765 54.7805 21.6671 51.8085 18.6951C48.8333 15.7199 44.7239 13.8789 40.1838 13.8789C35.6437 13.8789 31.5343 15.7199 28.559 18.6951C25.5871 21.6671 23.7461 25.7765 23.7461 30.3166C23.7461 34.8567 25.5871 38.9661 28.559 41.938C31.5343 44.9133 35.6437 46.7543 40.1838 46.7543C44.7239 46.7543 48.8333 44.9133 51.8085 41.938C54.7805 38.9661 56.6215 34.8567 56.6215 30.3166Z" fill="black" fill-opacity="0.18"/>
<path d="M20.457 63.1931C20.457 66.4807 27.854 69.7682 40.1823 69.7682C51.7478 69.7682 59.9075 66.4807 59.9075 63.1931C59.9075 56.618 52.1686 50.043 40.1823 50.043C27.854 50.043 20.457 56.618 20.457 63.1931Z" fill="black" fill-opacity="0.18"/>
</svg>
