<svg width="11" height="7" viewBox="0 0 11 7" fill="none" xmlns="http://www.w3.org/2000/svg">
<path fill-rule="evenodd" clip-rule="evenodd" d="M1.28107 0.799429C1.4686 0.611958 1.7229 0.506642 1.98807 0.506642C2.25323 0.506642 2.50754 0.611958 2.69507 0.799429L5.98807 4.09243L9.28107 0.799429C9.37331 0.703919 9.48366 0.627736 9.60566 0.575327C9.72767 0.522918 9.85889 0.495332 9.99167 0.494178C10.1244 0.493025 10.2561 0.518326 10.379 0.568607C10.5019 0.618888 10.6136 0.693141 10.7075 0.787034C10.8014 0.880926 10.8756 0.992578 10.9259 1.11547C10.9762 1.23837 11.0015 1.37005 11.0003 1.50283C10.9992 1.63561 10.9716 1.76683 10.9192 1.88883C10.8668 2.01084 10.7906 2.12118 10.6951 2.21343L6.69507 6.21343C6.50754 6.4009 6.25323 6.50622 5.98807 6.50622C5.7229 6.50622 5.4686 6.4009 5.28107 6.21343L1.28107 2.21343C1.0936 2.0259 0.988281 1.77159 0.988281 1.50643C0.988281 1.24126 1.0936 0.986957 1.28107 0.799429Z" fill="#808080"/>
</svg>
